<svg width="87" height="29" viewBox="0 0 87 29" fill="none" xmlns="http://www.w3.org/2000/svg">
<path d="M45.56 0.499998C45.9867 0.499998 46.3733 0.646665 46.72 0.94C47.0667 1.20667 47.2667 1.54 47.32 1.94C47.4 2.34 47.3467 2.75333 47.16 3.18L47 3.5V3.54L45.88 5.66C45.5867 6.19333 45.1733 6.63333 44.64 6.98C44.1067 7.3 43.5333 7.46 42.92 7.46H35.16C34.4667 7.46 33.9467 7.16667 33.6 6.58C33.2533 5.99333 33.24 5.39333 33.56 4.78L33.72 4.46L34.32 3.26C30.96 3.26 29.1333 3.26 28.84 3.26C28.7867 3.26 28.7333 3.26 28.68 3.26C28.6533 3.26 28.6133 3.26 28.56 3.26C28.5333 3.26 28.4933 3.27333 28.44 3.3C28.4133 3.3 28.3867 3.3 28.36 3.3C28.3067 3.3 28.2533 3.3 28.2 3.3C28.1733 3.3 28.1467 3.3 28.12 3.3C28.0933 3.3 28.0533 3.31333 28 3.34C27.9467 3.34 27.9067 3.34 27.88 3.34C27.8533 3.34 27.8133 3.35333 27.76 3.38C27.7333 3.38 27.7067 3.38 27.68 3.38C27.6533 3.38 27.6133 3.39333 27.56 3.42C27.5067 3.42 27.4667 3.42 27.44 3.42C27.4133 3.42 27.3733 3.43333 27.32 3.46C27.2933 3.46 27.2667 3.47333 27.24 3.5C27.2133 3.5 27.1733 3.5 27.12 3.5C27.0667 3.5 27.0267 3.51333 27 3.54C26.9733 3.54 26.9333 3.55333 26.88 3.58C26.8533 3.58 26.8267 3.58 26.8 3.58C26.7733 3.60667 26.7333 3.63333 26.68 3.66C26.6533 3.66 26.6267 3.66 26.6 3.66C26.5733 3.66 26.5333 3.67333 26.48 3.7C26.4267 3.72667 26.3867 3.75333 26.36 3.78C26.3333 3.78 26.3067 3.78 26.28 3.78C26.2267 3.80667 26.1867 3.83333 26.16 3.86C26.16 3.86 26.1333 3.87333 26.08 3.9C26.0267 3.9 25.9867 3.91333 25.96 3.94C25.9333 3.94 25.8933 3.95333 25.84 3.98C25.8133 4.00666 25.7867 4.03333 25.76 4.06C25.7333 4.06 25.6933 4.07333 25.64 4.1C25.6133 4.12667 25.5867 4.14 25.56 4.14C25.5333 4.14 25.5067 4.15333 25.48 4.18C25.4267 4.23333 25.3867 4.26 25.36 4.26C25.36 4.26 25.3333 4.27333 25.28 4.3C25.2267 4.32667 25.2 4.35333 25.2 4.38C25.1733 4.38 25.1333 4.40667 25.08 4.46C25.0267 4.48667 24.9867 4.5 24.96 4.5C24.96 4.5 24.9467 4.52667 24.92 4.58C24.8667 4.60667 24.8267 4.62 24.8 4.62C24.8 4.62 24.7733 4.64667 24.72 4.7C24.6667 4.72667 24.64 4.75333 24.64 4.78C24.64 4.78 24.6133 4.80666 24.56 4.86C24.5067 4.88667 24.48 4.9 24.48 4.9C24.48 4.9 24.4533 4.92667 24.4 4.98C24.3467 5.03333 24.3067 5.06 24.28 5.06C24.28 5.06 24.2533 5.08667 24.2 5.14C24.1733 5.19333 24.1467 5.22 24.12 5.22C24.12 5.22 24.0933 5.24667 24.04 5.3C24.0133 5.35333 23.9867 5.38 23.96 5.38C23.96 5.38 23.9333 5.40667 23.88 5.46C23.8533 5.51333 23.8267 5.55333 23.8 5.58C23.8 5.58 23.7867 5.59333 23.76 5.62C23.7067 5.67333 23.68 5.71333 23.68 5.74C23.68 5.74 23.6667 5.75333 23.64 5.78C23.64 5.78 23.64 5.79333 23.64 5.82C23.5867 5.87333 23.5467 5.9 23.52 5.9C23.52 5.9 23.5067 5.91333 23.48 5.94C23.48 5.96667 23.48 5.98 23.48 5.98C23.4267 6.03333 23.4 6.07333 23.4 6.1C23.4 6.1 23.3867 6.11333 23.36 6.14C23.36 6.14 23.36 6.15333 23.36 6.18C23.3067 6.23333 23.28 6.27333 23.28 6.3C23.28 6.3 23.2667 6.31333 23.24 6.34C23.1867 6.42 23.16 6.46 23.16 6.46C23.16 6.48667 23.1467 6.51333 23.12 6.54C23.04 6.64667 22.9733 6.75333 22.92 6.86L17.6 17.18C17.04 18.1667 16.8133 19.1667 16.92 20.18C17.0267 21.1933 17.3067 22.1133 17.76 22.94C18.24 23.74 18.92 24.4067 19.8 24.94C20.7067 25.4733 21.6933 25.74 22.76 25.74L23.52 24.3H23.48L25.48 20.5C25.7467 19.94 26.1467 19.5 26.68 19.18C27.2133 18.86 27.8 18.7 28.44 18.7H36.2C36.8667 18.7 37.3733 18.9933 37.72 19.58C38.0933 20.1667 38.12 20.7667 37.8 21.38L37.32 22.3H37.36L35.08 26.7C34.7867 27.26 34.3733 27.7 33.84 28.02C33.3067 28.34 32.7333 28.5 32.12 28.5H24.36H11.72H1.92C1.84 28.5 1.74667 28.4867 1.64 28.46C1.56 28.46 1.49333 28.4467 1.44 28.42C1.06667 28.34 0.76 28.1533 0.52 27.86C0.28 27.54 0.146666 27.1933 0.12 26.82C0.12 26.74 0.12 26.6867 0.12 26.66C0.12 26.66 0.12 26.6467 0.12 26.62C0.12 26.54 0.12 26.4733 0.12 26.42C0.12 26.3933 0.12 26.38 0.12 26.38C0.146666 26.1933 0.213333 26.0067 0.32 25.82V25.74H0.36L6.24 14.38L12.08 3.18C12.8267 1.71333 14 0.846666 15.6 0.579999C15.6533 0.553332 15.7067 0.539998 15.76 0.539998C15.84 0.539998 15.9333 0.526664 16.04 0.499998C16.1733 0.499998 16.3067 0.499998 16.44 0.499998H44.24H45.56ZM84.5053 0.499998C84.932 0.499998 85.3186 0.646665 85.6653 0.94C86.012 1.20667 86.212 1.54 86.2653 1.94C86.3453 2.34 86.292 2.75333 86.1053 3.18L85.9453 3.5V3.54L84.8253 5.66C84.532 6.19333 84.1186 6.63333 83.5853 6.98C83.052 7.3 82.4786 7.46 81.8653 7.46H74.1053C73.412 7.46 72.892 7.16667 72.5453 6.58C72.1986 5.99333 72.1853 5.39333 72.5053 4.78L72.6653 4.46L73.2653 3.26C69.9053 3.26 68.0786 3.26 67.7853 3.26C67.732 3.26 67.6786 3.26 67.6253 3.26C67.5986 3.26 67.5586 3.26 67.5053 3.26C67.4786 3.26 67.4386 3.27333 67.3853 3.3C67.3586 3.3 67.332 3.3 67.3053 3.3C67.252 3.3 67.1986 3.3 67.1453 3.3C67.1186 3.3 67.092 3.3 67.0653 3.3C67.0386 3.3 66.9986 3.31333 66.9453 3.34C66.892 3.34 66.852 3.34 66.8253 3.34C66.7986 3.34 66.7586 3.35333 66.7053 3.38C66.6786 3.38 66.652 3.38 66.6253 3.38C66.5986 3.38 66.5586 3.39333 66.5053 3.42C66.452 3.42 66.412 3.42 66.3853 3.42C66.3586 3.42 66.3186 3.43333 66.2653 3.46C66.2386 3.46 66.212 3.47333 66.1853 3.5C66.1586 3.5 66.1186 3.5 66.0653 3.5C66.012 3.5 65.972 3.51333 65.9453 3.54C65.9186 3.54 65.8786 3.55333 65.8253 3.58C65.7986 3.58 65.772 3.58 65.7453 3.58C65.7186 3.60667 65.6786 3.63333 65.6253 3.66C65.5986 3.66 65.572 3.66 65.5453 3.66C65.5186 3.66 65.4786 3.67333 65.4253 3.7C65.372 3.72667 65.332 3.75333 65.3053 3.78C65.2786 3.78 65.252 3.78 65.2253 3.78C65.172 3.80667 65.132 3.83333 65.1053 3.86C65.1053 3.86 65.0786 3.87333 65.0253 3.9C64.972 3.9 64.932 3.91333 64.9053 3.94C64.8786 3.94 64.8386 3.95333 64.7853 3.98C64.7586 4.00666 64.732 4.03333 64.7053 4.06C64.6786 4.06 64.6386 4.07333 64.5853 4.1C64.5586 4.12667 64.532 4.14 64.5053 4.14C64.4786 4.14 64.452 4.15333 64.4253 4.18C64.372 4.23333 64.332 4.26 64.3053 4.26C64.3053 4.26 64.2786 4.27333 64.2253 4.3C64.172 4.32667 64.1453 4.35333 64.1453 4.38C64.1186 4.38 64.0786 4.40667 64.0253 4.46C63.972 4.48667 63.932 4.5 63.9053 4.5C63.9053 4.5 63.892 4.52667 63.8653 4.58C63.812 4.60667 63.772 4.62 63.7453 4.62C63.7453 4.62 63.7186 4.64667 63.6653 4.7C63.612 4.72667 63.5853 4.75333 63.5853 4.78C63.5853 4.78 63.5586 4.80666 63.5053 4.86C63.452 4.88667 63.4253 4.9 63.4253 4.9C63.4253 4.9 63.3986 4.92667 63.3453 4.98C63.292 5.03333 63.252 5.06 63.2253 5.06C63.2253 5.06 63.1986 5.08667 63.1453 5.14C63.1186 5.19333 63.092 5.22 63.0653 5.22C63.0653 5.22 63.0386 5.24667 62.9853 5.3C62.9586 5.35333 62.932 5.38 62.9053 5.38C62.9053 5.38 62.8786 5.40667 62.8253 5.46C62.7986 5.51333 62.772 5.55333 62.7453 5.58C62.7453 5.58 62.732 5.59333 62.7053 5.62C62.652 5.67333 62.6253 5.71333 62.6253 5.74C62.6253 5.74 62.612 5.75333 62.5853 5.78C62.5853 5.78 62.5853 5.79333 62.5853 5.82C62.532 5.87333 62.492 5.9 62.4653 5.9C62.4653 5.9 62.452 5.91333 62.4253 5.94C62.4253 5.96667 62.4253 5.98 62.4253 5.98C62.372 6.03333 62.3453 6.07333 62.3453 6.1C62.3453 6.1 62.332 6.11333 62.3053 6.14C62.3053 6.14 62.3053 6.15333 62.3053 6.18C62.252 6.23333 62.2253 6.27333 62.2253 6.3C62.2253 6.3 62.212 6.31333 62.1853 6.34C62.132 6.42 62.1053 6.46 62.1053 6.46C62.1053 6.48667 62.092 6.51333 62.0653 6.54C61.9853 6.64667 61.9186 6.75333 61.8653 6.86L56.5453 17.18C55.9853 18.1667 55.7586 19.1667 55.8653 20.18C55.972 21.1933 56.252 22.1133 56.7053 22.94C57.1853 23.74 57.8653 24.4067 58.7453 24.94C59.652 25.4733 60.6386 25.74 61.7053 25.74L62.4653 24.3H62.4253L64.4253 20.5C64.692 19.94 65.092 19.5 65.6253 19.18C66.1586 18.86 66.7453 18.7 67.3853 18.7H75.1453C75.812 18.7 76.3186 18.9933 76.6653 19.58C77.0386 20.1667 77.0653 20.7667 76.7453 21.38L76.2653 22.3H76.3053L74.0253 26.7C73.732 27.26 73.3186 27.7 72.7853 28.02C72.252 28.34 71.6786 28.5 71.0653 28.5H63.3053H50.6653H40.8653C40.7853 28.5 40.692 28.4867 40.5853 28.46C40.5053 28.46 40.4386 28.4467 40.3853 28.42C40.012 28.34 39.7053 28.1533 39.4653 27.86C39.2253 27.54 39.092 27.1933 39.0653 26.82C39.0653 26.74 39.0653 26.6867 39.0653 26.66C39.0653 26.66 39.0653 26.6467 39.0653 26.62C39.0653 26.54 39.0653 26.4733 39.0653 26.42C39.0653 26.3933 39.0653 26.38 39.0653 26.38C39.092 26.1933 39.1586 26.0067 39.2653 25.82V25.74H39.3053L45.1853 14.38L51.0253 3.18C51.772 1.71333 52.9453 0.846666 54.5453 0.579999C54.5986 0.553332 54.652 0.539998 54.7053 0.539998C54.7853 0.539998 54.8786 0.526664 54.9853 0.499998C55.1186 0.499998 55.252 0.499998 55.3853 0.499998H83.1853H84.5053Z" fill="black"/>
</svg>
